<svg width="3433" height="728" viewBox="0 0 3433 728" fill="none" xmlns="http://www.w3.org/2000/svg">
<path d="M3180.45 647.042C3124.06 647.042 3075.52 635.621 3034.83 612.78C2994.38 589.7 2963.21 557.104 2941.32 514.989C2919.43 472.637 2908.49 422.553 2908.49 364.735C2908.49 308.345 2919.43 258.855 2941.32 216.265C2963.21 173.675 2994.03 140.483 3033.76 116.69C3073.73 92.8966 3120.61 81 3174.38 81C3210.55 81 3244.21 86.8294 3275.38 98.4881C3306.79 109.909 3334.15 127.159 3357.47 150.238C3381.02 173.318 3399.35 202.346 3412.43 237.322C3425.52 272.06 3432.06 312.747 3432.06 359.381V401.139H2969.16V306.917H3288.94C3288.94 285.027 3284.19 265.636 3274.67 248.743C3265.15 231.849 3251.95 218.644 3235.05 209.127C3218.4 199.372 3199.01 194.494 3176.88 194.494C3153.8 194.494 3133.34 199.847 3115.49 210.554C3097.88 221.023 3084.08 235.18 3074.09 253.025C3064.1 270.632 3058.98 290.262 3058.74 311.914V401.496C3058.74 428.62 3063.74 452.056 3073.73 471.805C3083.97 491.553 3098.36 506.781 3116.92 517.488C3135.48 528.195 3157.49 533.548 3182.95 533.548C3199.84 533.548 3215.3 531.169 3229.34 526.41C3243.38 521.652 3255.4 514.514 3265.39 504.996C3275.38 495.479 3283 483.82 3288.23 470.02L3428.85 479.3C3421.71 513.086 3407.08 542.59 3384.95 567.811C3363.06 592.794 3334.75 612.304 3300.01 626.342C3265.51 640.142 3225.65 647.042 3180.45 647.042Z" fill="#07D679"/>
<path d="M2914.04 244.46L2774.85 253.025C2772.47 241.129 2767.36 230.422 2759.51 220.904C2751.65 211.149 2741.3 203.416 2728.46 197.706C2715.84 191.758 2700.74 188.784 2683.13 188.784C2659.57 188.784 2639.71 193.78 2623.53 203.773C2607.35 213.529 2599.26 226.615 2599.26 243.032C2599.26 256.119 2604.49 267.182 2614.96 276.224C2625.43 285.265 2643.39 292.522 2668.85 297.995L2768.07 317.981C2821.37 328.926 2861.1 346.533 2887.28 370.802C2913.45 395.071 2926.53 426.954 2926.53 466.451C2926.53 502.379 2915.95 533.905 2894.77 561.029C2873.83 588.154 2845.04 609.33 2808.4 624.558C2772 639.547 2730 647.042 2682.41 647.042C2609.85 647.042 2552.03 631.933 2508.96 601.716C2466.13 571.261 2441.03 529.86 2433.66 477.515L2583.2 469.663C2587.72 491.791 2598.66 508.684 2616.03 520.343C2633.4 531.764 2655.65 537.474 2682.77 537.474C2709.42 537.474 2730.83 532.359 2747.01 522.127C2763.43 511.658 2771.76 498.215 2772 481.798C2771.76 467.998 2765.93 456.696 2754.51 447.892C2743.09 438.851 2725.48 431.951 2701.69 427.192L2606.75 408.277C2553.22 397.57 2513.36 379.011 2487.19 352.6C2461.26 326.19 2448.29 292.522 2448.29 251.598C2448.29 216.384 2457.81 186.047 2476.84 160.588C2496.11 135.13 2523.12 115.5 2557.86 101.7C2592.83 87.9 2633.76 81 2680.63 81C2749.87 81 2804.36 95.6328 2844.09 124.899C2884.06 154.164 2907.38 194.018 2914.04 244.46Z" fill="#07D679"/>
<path d="M2284.92 636.336V88.1387H2436.95V636.336H2284.92Z" fill="#07D679"/>
<path d="M1620.68 636.336L1471.5 88.1387H1625.32L1710.27 456.459H1715.26L1803.77 88.1387H1954.74L2044.68 454.317H2049.32L2132.83 88.1387H2286.3L2137.47 636.336H1976.51L1882.29 291.571H1875.51L1781.29 636.336H1620.68Z" fill="#0F4FC4"/>
<path d="M1330.55 402.924V88.1387H1482.58V636.336H1336.61V536.761H1330.9C1318.53 568.882 1297.95 594.698 1269.16 614.208C1240.61 633.719 1205.75 643.474 1164.59 643.474C1127.95 643.474 1095.71 635.146 1067.87 618.491C1040.03 601.836 1018.26 578.161 1002.56 547.468C987.09 516.775 979.238 480.014 979 437.186V88.1387H1131.04V410.062C1131.28 442.421 1139.96 467.998 1157.09 486.795C1174.22 505.592 1197.18 514.99 1225.97 514.99C1244.3 514.99 1261.43 510.826 1277.37 502.499C1293.31 493.933 1306.16 481.323 1315.91 464.667C1325.91 448.012 1330.78 427.431 1330.55 402.924Z" fill="#0F4FC4"/>
<path fill-rule="evenodd" clip-rule="evenodd" d="M364.376 728.009C565.41 728.009 728.38 565.039 728.38 364.005C728.38 162.97 565.41 0 364.376 0C163.341 0 0.371094 162.97 0.371094 364.005C0.371094 565.039 163.341 728.009 364.376 728.009ZM364.377 563.62C474.621 563.62 563.992 474.249 563.992 364.005C563.992 253.76 474.621 164.389 364.377 164.389C254.132 164.389 164.761 253.76 164.761 364.005C164.761 474.249 254.132 563.62 364.377 563.62Z" fill="#0F4FC4"/>
<path fill-rule="evenodd" clip-rule="evenodd" d="M520.277 728.009C721.311 728.009 884.281 565.039 884.281 364.005C884.281 162.97 721.311 0 520.277 0C319.243 0 156.272 162.97 156.272 364.005C156.272 565.039 319.243 728.009 520.277 728.009ZM520.278 563.62C630.523 563.62 719.894 474.249 719.894 364.005C719.894 253.76 630.523 164.389 520.278 164.389C410.034 164.389 320.663 253.76 320.663 364.005C320.663 474.249 410.034 563.62 520.278 563.62Z" fill="#07D679"/>
</svg>
