<svg width="893" height="893" viewBox="0 0 893 893" fill="none" xmlns="http://www.w3.org/2000/svg">
<rect width="892.322" height="892.322" fill="white"/>
<path d="M672.755 511.584C659.647 511.584 648.363 508.929 638.905 503.619C629.502 498.254 622.257 490.677 617.168 480.887C612.079 471.041 609.535 459.398 609.535 445.958C609.535 432.849 612.079 421.345 617.168 411.444C622.257 401.543 629.419 393.828 638.656 388.297C647.948 382.766 658.845 380 671.345 380C679.752 380 687.578 381.355 694.824 384.065C702.125 386.72 708.486 390.73 713.906 396.095C719.382 401.461 723.641 408.208 726.683 416.339C729.725 424.414 731.246 433.873 731.246 444.713V454.42H623.639V432.517H697.977C697.977 427.429 696.871 422.921 694.658 418.994C692.446 415.067 689.376 411.997 685.449 409.785C681.577 407.517 677.069 406.383 671.926 406.383C666.56 406.383 661.804 407.628 657.655 410.117C653.562 412.55 650.354 415.841 648.031 419.99C645.708 424.083 644.519 428.646 644.464 433.679V454.503C644.464 460.809 645.625 466.257 647.948 470.848C650.327 475.439 653.673 478.978 657.987 481.467C662.302 483.956 667.418 485.201 673.336 485.201C677.263 485.201 680.858 484.648 684.122 483.542C687.385 482.435 690.178 480.776 692.501 478.564C694.824 476.351 696.594 473.641 697.811 470.433L730.5 472.59C728.84 480.444 725.439 487.303 720.295 493.166C715.206 498.973 708.624 503.509 700.549 506.772C692.529 509.98 683.264 511.584 672.755 511.584Z" fill="#00B060"/>
<path d="M610.826 417.998L578.47 419.99C577.917 417.224 576.727 414.735 574.902 412.523C573.077 410.255 570.671 408.457 567.684 407.13C564.753 405.747 561.24 405.056 557.147 405.056C551.672 405.056 547.053 406.217 543.292 408.54C539.531 410.808 537.651 413.85 537.651 417.667C537.651 420.709 538.867 423.281 541.301 425.382C543.735 427.484 547.911 429.171 553.829 430.443L576.893 435.089C589.283 437.634 598.52 441.727 604.604 447.368C610.688 453.01 613.73 460.422 613.73 469.603C613.73 477.955 611.269 485.284 606.346 491.589C601.479 497.895 594.786 502.817 586.269 506.357C577.806 509.842 568.044 511.584 556.982 511.584C540.112 511.584 526.671 508.072 516.66 501.047C506.704 493.968 500.869 484.344 499.154 472.175L533.917 470.35C534.968 475.494 537.512 479.421 541.55 482.131C545.588 484.786 550.759 486.113 557.065 486.113C563.259 486.113 568.237 484.924 571.998 482.546C575.815 480.112 577.751 476.987 577.806 473.171C577.751 469.963 576.396 467.335 573.741 465.289C571.086 463.187 566.993 461.583 561.462 460.477L539.393 456.08C526.948 453.591 517.683 449.277 511.599 443.137C505.57 436.998 502.556 429.171 502.556 419.658C502.556 411.472 504.768 404.42 509.193 398.501C513.673 392.583 519.951 388.02 528.026 384.812C536.157 381.604 545.671 380 556.567 380C572.662 380 585.328 383.402 594.565 390.205C603.857 397.008 609.278 406.273 610.826 417.998Z" fill="#00B060"/>
<path d="M464.577 509.095V381.659H499.921V509.095H464.577Z" fill="#00B060"/>
<path d="M310.168 509.095L275.488 381.659H311.247L330.992 467.28H332.154L352.73 381.659H387.824L408.732 466.782H409.81L429.224 381.659H464.9L430.303 509.095H392.885L370.982 428.95H369.406L347.503 509.095H310.168Z" fill="#0F4FC4"/>
<path d="M242.721 454.835V381.659H278.065V509.095H244.132V485.948H242.804C239.928 493.415 235.144 499.416 228.451 503.951C221.814 508.487 213.711 510.754 204.142 510.754C195.624 510.754 188.13 508.819 181.659 504.947C175.187 501.075 170.126 495.572 166.476 488.437C162.881 481.302 161.055 472.756 161 462.8V381.659H196.343V456.495C196.399 464.017 198.418 469.963 202.4 474.332C206.382 478.702 211.72 480.887 218.412 480.887C222.671 480.887 226.654 479.919 230.36 477.983C234.065 475.992 237.052 473.06 239.32 469.189C241.643 465.317 242.777 460.532 242.721 454.835Z" fill="#0F4FC4"/>
</svg>
