<svg width="893" height="893" viewBox="0 0 893 893" fill="none" xmlns="http://www.w3.org/2000/svg">
<rect width="892.322" height="892.322" fill="#0F4FC4"/>
<path d="M671.938 511.321C658.854 511.321 647.593 508.671 638.153 503.372C628.768 498.017 621.536 490.454 616.458 480.683C611.379 470.856 608.839 459.236 608.839 445.821C608.839 432.738 611.379 421.255 616.458 411.374C621.536 401.492 628.685 393.791 637.904 388.271C647.179 382.751 658.054 379.99 670.53 379.99C678.921 379.99 686.732 381.343 693.964 384.048C701.251 386.698 707.599 390.7 713.009 396.055C718.475 401.41 722.725 408.145 725.762 416.26C728.798 424.319 730.316 433.759 730.316 444.579V454.268H622.916V432.407H697.111C697.111 427.328 696.007 422.829 693.798 418.909C691.59 414.99 688.526 411.926 684.607 409.718C680.743 407.454 676.244 406.323 671.11 406.323C665.755 406.323 661.007 407.565 656.867 410.049C652.782 412.478 649.58 415.763 647.261 419.903C644.943 423.988 643.756 428.542 643.701 433.566V454.35C643.701 460.644 644.86 466.081 647.179 470.663C649.552 475.245 652.892 478.778 657.198 481.262C661.504 483.747 666.61 484.989 672.517 484.989C676.437 484.989 680.025 484.437 683.282 483.332C686.539 482.228 689.327 480.572 691.646 478.364C693.964 476.156 695.731 473.451 696.945 470.249L729.571 472.402C727.915 480.241 724.52 487.086 719.386 492.938C714.307 498.734 707.738 503.261 699.678 506.518C691.673 509.72 682.426 511.321 671.938 511.321Z" fill="#FAFAFA"/>
<path d="M610.128 417.916L577.834 419.903C577.282 417.143 576.095 414.659 574.273 412.45C572.452 410.187 570.05 408.393 567.069 407.068C564.143 405.688 560.638 404.998 556.553 404.998C551.088 404.998 546.478 406.157 542.724 408.476C538.97 410.739 537.093 413.775 537.093 417.584C537.093 420.621 538.308 423.188 540.737 425.285C543.166 427.383 547.334 429.067 553.241 430.337L576.261 434.974C588.626 437.513 597.846 441.598 603.918 447.229C609.99 452.86 613.027 460.257 613.027 469.421C613.027 477.757 610.57 485.071 605.657 491.365C600.799 497.658 594.119 502.571 585.618 506.104C577.172 509.582 567.428 511.321 556.387 511.321C539.55 511.321 526.135 507.816 516.143 500.805C506.207 493.738 500.383 484.133 498.671 471.988L533.367 470.166C534.416 475.3 536.955 479.22 540.985 481.925C545.015 484.575 550.177 485.899 556.47 485.899C562.653 485.899 567.621 484.713 571.375 482.339C575.184 479.91 577.116 476.791 577.172 472.982C577.116 469.78 575.764 467.158 573.114 465.115C570.464 463.017 566.379 461.416 560.859 460.312L538.832 455.924C526.411 453.439 517.165 449.134 511.092 443.006C505.075 436.878 502.066 429.067 502.066 419.572C502.066 411.402 504.275 404.363 508.691 398.456C513.162 392.549 519.428 387.995 527.488 384.793C535.603 381.591 545.098 379.99 555.973 379.99C572.038 379.99 584.679 383.385 593.898 390.176C603.173 396.966 608.583 406.212 610.128 417.916Z" fill="#FAFAFA"/>
<path d="M464.161 508.837V381.647H499.437V508.837H464.161Z" fill="#FAFAFA"/>
<path d="M310.049 508.837L275.436 381.647H311.125L330.833 467.103H331.992L352.528 381.647H387.555L408.422 466.606H409.499L428.875 381.647H464.482L429.952 508.837H392.606L370.745 428.846H369.172L347.311 508.837H310.049Z" fill="#FAFAFA"/>
<path d="M242.732 454.682V381.647H278.008V508.837H244.14V485.734H242.815C239.945 493.187 235.17 499.176 228.49 503.703C221.865 508.23 213.778 510.493 204.228 510.493C195.726 510.493 188.246 508.561 181.787 504.697C175.328 500.832 170.277 495.34 166.634 488.218C163.045 481.097 161.224 472.568 161.168 462.631V381.647H196.444V456.338C196.499 463.846 198.514 469.78 202.489 474.141C206.463 478.502 211.791 480.683 218.47 480.683C222.721 480.683 226.696 479.717 230.394 477.785C234.093 475.797 237.074 472.871 239.337 469.007C241.656 465.143 242.788 460.368 242.732 454.682Z" fill="#FAFAFA"/>
</svg>
