<svg width="394" height="72" viewBox="0 0 394 72" fill="none" xmlns="http://www.w3.org/2000/svg">
<path d="M240.187 66.7576C234.035 66.7576 228.739 65.5115 224.3 63.0194C219.887 60.5013 216.486 56.9449 214.098 52.3501C211.71 47.7293 210.516 42.2648 210.516 35.9566C210.516 29.8042 211.71 24.4047 214.098 19.7579C216.486 15.1112 219.848 11.4898 224.183 8.89386C228.544 6.29791 233.658 4.99994 239.525 4.99994C243.471 4.99994 247.144 5.63595 250.545 6.90796C253.972 8.15402 256.957 10.0361 259.501 12.5541C262.071 15.0722 264.07 18.2393 265.498 22.0553C266.925 25.8454 267.639 30.2845 267.639 35.3725V39.9284H217.135V29.6485H252.025C252.025 27.2602 251.506 25.1445 250.467 23.3014C249.429 21.4583 247.988 20.0175 246.145 18.9791C244.328 17.9148 242.212 17.3826 239.798 17.3826C237.28 17.3826 235.047 17.9667 233.1 19.1349C231.179 20.2771 229.674 21.8217 228.583 23.7686C227.493 25.6897 226.935 27.8313 226.909 30.1936V39.9674C226.909 42.9268 227.454 45.4838 228.544 47.6384C229.661 49.793 231.231 51.4545 233.256 52.6226C235.281 53.7908 237.682 54.3749 240.46 54.3749C242.303 54.3749 243.99 54.1153 245.522 53.5961C247.053 53.0769 248.364 52.2981 249.455 51.2598C250.545 50.2214 251.376 48.9494 251.947 47.4437L267.289 48.4561C266.51 52.1424 264.914 55.3614 262.499 58.1131C260.111 60.8388 257.022 62.9675 253.232 64.4991C249.468 66.0047 245.12 66.7576 240.187 66.7576Z" fill="#0B57DD"/>
<path d="M211.121 22.8341L195.935 23.7686C195.676 22.4707 195.117 21.3025 194.261 20.2641C193.404 19.1998 192.275 18.3561 190.873 17.7331C189.497 17.0841 187.849 16.7596 185.928 16.7596C183.358 16.7596 181.19 17.3047 179.425 18.395C177.66 19.4594 176.777 20.8871 176.777 22.6783C176.777 24.1061 177.348 25.3132 178.49 26.2997C179.633 27.2862 181.593 28.0779 184.37 28.675L195.195 30.8556C201.01 32.0497 205.345 33.9707 208.201 36.6186C211.057 39.2665 212.484 42.745 212.484 47.0543C212.484 50.9742 211.329 54.4138 209.019 57.3732C206.734 60.3326 203.593 62.643 199.595 64.3044C195.624 65.9398 191.042 66.7576 185.85 66.7576C177.932 66.7576 171.624 65.1091 166.925 61.8123C162.253 58.4895 159.514 53.9725 158.709 48.2614L175.025 47.4048C175.518 49.819 176.712 51.6621 178.607 52.9341C180.502 54.1802 182.929 54.8032 185.889 54.8032C188.796 54.8032 191.133 54.2451 192.898 53.1288C194.689 51.9866 195.598 50.5199 195.624 48.7287C195.598 47.2231 194.962 45.99 193.716 45.0295C192.47 44.043 190.549 43.2902 187.953 42.771L177.595 40.7072C171.754 39.539 167.406 37.5142 164.55 34.6327C161.721 31.7512 160.306 28.0779 160.306 23.6129C160.306 19.7709 161.344 16.4611 163.421 13.6834C165.524 10.9057 168.47 8.76406 172.26 7.25841C176.076 5.75276 180.541 4.99994 185.655 4.99994C193.209 4.99994 199.154 6.59644 203.489 9.78946C207.851 12.9825 210.395 17.3307 211.121 22.8341Z" fill="#0B57DD"/>
<path d="M142.481 65.5895V5.77881H159.069V65.5895H142.481Z" fill="#0B57DD"/>
<path d="M70.0104 65.5894L53.7338 5.77869H70.5166L79.7841 45.964H80.3293L89.9862 5.77869H106.457L116.27 45.7303H116.776L125.888 5.77869H142.632L126.394 65.5894H108.833L98.5528 27.9741H97.813L87.533 65.5894H70.0104Z" fill="#0B57DD"/>
<path d="M38.3551 40.1231V5.77869H54.9433V65.5894H39.0171V54.7253H38.3941C37.0442 58.2298 34.7987 61.0464 31.6576 63.1751C28.5425 65.3038 24.7394 66.3681 20.2484 66.3681C16.2506 66.3681 12.7331 65.4596 9.69587 63.6424C6.65861 61.8252 4.28332 59.2423 2.56999 55.8935C0.882623 52.5447 0.0259595 48.534 0 43.8613V5.77869H16.5881V40.9019C16.6141 44.4324 17.5616 47.223 19.4307 49.2738C21.2998 51.3246 23.8049 52.35 26.946 52.35C28.9448 52.35 30.8139 51.8957 32.5532 50.9871C34.2925 50.0526 35.6943 48.6767 36.7586 46.8596C37.8489 45.0424 38.3811 42.7969 38.3551 40.1231Z" fill="#0B57DD"/>
<path fill-rule="evenodd" clip-rule="evenodd" d="M303.487 71.4869C323.086 71.4869 338.974 55.5989 338.974 36C338.974 16.4012 323.086 0.513184 303.487 0.513184C283.888 0.513184 268 16.4012 268 36C268 55.5989 283.888 71.4869 303.487 71.4869ZM303.487 55.4606C314.235 55.4606 322.947 46.7478 322.947 36C322.947 25.2523 314.235 16.5395 303.487 16.5395C292.739 16.5395 284.026 25.2523 284.026 36C284.026 46.7478 292.739 55.4606 303.487 55.4606Z" fill="#02C16A"/>
<path fill-rule="evenodd" clip-rule="evenodd" d="M358.513 71.4869C378.112 71.4869 394 55.5989 394 36C394 16.4012 378.112 0.513184 358.513 0.513184C338.914 0.513184 323.026 16.4012 323.026 36C323.026 55.5989 338.914 71.4869 358.513 71.4869ZM358.513 55.4606C369.261 55.4606 377.974 46.7478 377.974 36C377.974 25.2523 369.261 16.5395 358.513 16.5395C347.765 16.5395 339.053 25.2523 339.053 36C339.053 46.7478 347.765 55.4606 358.513 55.4606Z" fill="#07D679"/>
</svg>
