<svg width="84" height="86" viewBox="0 0 84 86" fill="none" xmlns="http://www.w3.org/2000/svg">
<path d="M78.719 37.7504C80.2338 34.262 80.7774 30.4289 80.292 26.6568C79.8067 22.8848 78.3107 19.3141 75.9621 16.3227C73.6136 13.3313 70.5001 11.0305 66.951 9.66384C63.4019 8.29714 59.5493 7.9154 55.801 8.55902C53.5357 5.50849 50.4885 3.12647 46.9813 1.66463C43.4742 0.202796 39.6373 -0.284577 35.876 0.254005C32.1147 0.792588 28.5688 2.33713 25.6127 4.72443C22.6567 7.11174 20.4004 10.2532 19.0823 13.8168C15.3073 14.2535 11.7204 15.702 8.7006 18.009C5.68085 20.316 3.34043 23.396 1.92667 26.9234C0.512903 30.4508 0.0783167 34.2946 0.668834 38.0486C1.25935 41.8026 2.85304 45.3274 5.28147 48.2504C4.07479 51.032 3.48195 54.041 3.54334 57.0724C3.60474 60.1038 4.31893 63.0864 5.63725 65.8168C6.95556 68.5472 8.84702 70.9613 11.1827 72.8947C13.5184 74.828 16.2434 76.235 19.1721 77.02C20.9587 77.5059 22.8011 77.7567 24.6526 77.7661C25.8388 77.7661 27.0229 77.6641 28.1916 77.4614C30.4569 80.5119 33.5041 82.8939 37.0113 84.3557C40.5185 85.8176 44.3554 86.305 48.1167 85.7664C51.8779 85.2278 55.4239 83.6833 58.3799 81.2959C61.3359 78.9086 63.5922 75.7672 64.9104 72.2035C68.6896 71.7704 72.2813 70.3233 75.3052 68.0156C78.3291 65.7078 80.6728 62.6253 82.0879 59.0944C83.5031 55.5636 83.9371 51.7157 83.344 47.9583C82.751 44.2009 81.1529 40.6738 78.719 37.7504ZM63.6291 13.5082C65.7667 14.0807 67.7663 15.0796 69.5078 16.445C71.2492 17.8103 72.6964 19.5139 73.7624 21.4531C74.8283 23.3923 75.4909 25.5271 75.7104 27.7291C75.9298 29.931 75.7015 32.1546 75.0393 34.266C74.4023 33.7962 73.7398 33.362 73.0549 32.9653L55.6721 22.9301C55.3158 22.7244 54.9116 22.6161 54.5002 22.6161C54.0888 22.6161 53.6846 22.7244 53.3283 22.9301L34.969 33.5278V24.5082L51.1799 15.1332C53.0446 14.0529 55.1049 13.353 57.2418 13.0741C59.3787 12.7952 61.5496 12.9427 63.6291 13.5082ZM49.0315 47.059L42.0002 51.1176L34.969 47.059V38.9418L42.0002 34.8832L49.0315 38.9418V47.059ZM22.469 21.1254C22.4685 17.8216 23.4656 14.5947 25.3295 11.867C27.1935 9.13923 29.8376 7.03779 32.9157 5.8377C35.9938 4.63761 39.3625 4.39479 42.5809 5.14101C45.7993 5.88724 48.7174 7.58774 50.9533 10.02C50.2288 10.3382 49.522 10.6955 48.8362 11.0903L31.4533 21.1254C31.0974 21.3309 30.8018 21.6264 30.5961 21.9823C30.3904 22.3381 30.2819 22.7418 30.2815 23.1528V44.352L22.469 39.8442V21.1254ZM7.28538 26.5668C8.41569 24.5958 9.94539 22.8826 11.7764 21.5373C13.6075 20.1919 15.6994 19.244 17.9182 18.7543C17.8289 19.5416 17.7833 20.3331 17.7815 21.1254V41.1957C17.7812 41.6074 17.8894 42.0119 18.0951 42.3685C18.3008 42.725 18.5968 43.0212 18.9533 43.227L37.3127 53.8246L29.5002 58.3364L13.2893 48.9614C9.52579 46.7856 6.77966 43.2052 5.65395 39.0063C4.52825 34.8074 5.11501 30.3334 7.28538 26.5668ZM20.3713 72.4926C18.2338 71.9202 16.2341 70.9212 14.4927 69.5559C12.7513 68.1905 11.304 66.487 10.2381 64.5478C9.17214 62.6086 8.50951 60.4738 8.29007 58.2718C8.07062 56.0698 8.2989 53.8462 8.96116 51.7348C9.59815 52.2046 10.2606 52.6389 10.9455 53.0356L28.3283 63.0707C28.6846 63.2764 29.0888 63.3847 29.5002 63.3847C29.9116 63.3847 30.3158 63.2764 30.6721 63.0707L49.0315 52.4731V61.4926L32.8205 70.8676C30.9559 71.9479 28.8955 72.6478 26.7586 72.9267C24.6218 73.2057 22.4508 73.0581 20.3713 72.4926ZM61.5315 64.8754C61.5319 68.1792 60.5349 71.4061 58.6709 74.1339C56.8069 76.8616 54.1629 78.9631 51.0848 80.1631C48.0067 81.3632 44.6379 81.6061 41.4195 80.8598C38.2011 80.1136 35.283 78.4131 33.0471 75.9809C33.7717 75.6627 34.4784 75.3054 35.1643 74.9106L52.5471 64.8754C52.903 64.6699 53.1987 64.3744 53.4044 64.0186C53.6101 63.6628 53.7186 63.2591 53.719 62.8481V41.6489L61.5315 46.1567V64.8754ZM76.7151 59.434C75.5848 61.4051 74.0551 63.1182 72.224 64.4636C70.393 65.8089 68.301 66.7568 66.0823 67.2465C66.1715 66.4593 66.2172 65.6677 66.219 64.8754V44.8051C66.2192 44.3934 66.1111 43.989 65.9053 43.6324C65.6996 43.2758 65.4036 42.9797 65.0471 42.7739L46.6877 32.1762L54.5002 27.6645L70.7112 37.0395C74.4747 39.2152 77.2208 42.7957 78.3465 46.9946C79.4722 51.1934 78.8854 55.6674 76.7151 59.434Z" fill="black"/>
</svg>
