<svg width="94" height="82" viewBox="0 0 94 82" fill="none" xmlns="http://www.w3.org/2000/svg">
<path d="M61.8375 62.5L72.6625 81.25H65.45L54.625 62.5H39.1625L28.3375 81.25H21.125L31.95 62.5H12.5C11.6712 62.5 10.8763 62.1708 10.2903 61.5847C9.70424 60.9987 9.375 60.2038 9.375 59.375V6.25H3.125C2.2962 6.25 1.50134 5.92076 0.915291 5.33471C0.32924 4.74866 0 3.9538 0 3.125C0 2.2962 0.32924 1.50134 0.915291 0.915292C1.50134 0.329241 2.2962 0 3.125 0H90.625C91.4538 0 92.2487 0.329241 92.8347 0.915292C93.4208 1.50134 93.75 2.2962 93.75 3.125C93.75 3.9538 93.4208 4.74866 92.8347 5.33471C92.2487 5.92076 91.4538 6.25 90.625 6.25H84.375V59.375C84.375 60.2038 84.0458 60.9987 83.4597 61.5847C82.8737 62.1708 82.0788 62.5 81.25 62.5H61.8375ZM78.125 6.25H15.625V56.25H78.125V6.25ZM31.25 31.25C32.0788 31.25 32.8737 31.5792 33.4597 32.1653C34.0458 32.7513 34.375 33.5462 34.375 34.375V40.625C34.375 41.4538 34.0458 42.2487 33.4597 42.8347C32.8737 43.4208 32.0788 43.75 31.25 43.75C30.4212 43.75 29.6263 43.4208 29.0403 42.8347C28.4542 42.2487 28.125 41.4538 28.125 40.625V34.375C28.125 33.5462 28.4542 32.7513 29.0403 32.1653C29.6263 31.5792 30.4212 31.25 31.25 31.25ZM46.875 25C47.7038 25 48.4987 25.3292 49.0847 25.9153C49.6708 26.5013 50 27.2962 50 28.125V40.625C50 41.4538 49.6708 42.2487 49.0847 42.8347C48.4987 43.4208 47.7038 43.75 46.875 43.75C46.0462 43.75 45.2513 43.4208 44.6653 42.8347C44.0792 42.2487 43.75 41.4538 43.75 40.625V28.125C43.75 27.2962 44.0792 26.5013 44.6653 25.9153C45.2513 25.3292 46.0462 25 46.875 25ZM62.5 18.75C63.3288 18.75 64.1237 19.0792 64.7097 19.6653C65.2958 20.2513 65.625 21.0462 65.625 21.875V40.625C65.625 41.4538 65.2958 42.2487 64.7097 42.8347C64.1237 43.4208 63.3288 43.75 62.5 43.75C61.6712 43.75 60.8763 43.4208 60.2903 42.8347C59.7042 42.2487 59.375 41.4538 59.375 40.625V21.875C59.375 21.0462 59.7042 20.2513 60.2903 19.6653C60.8763 19.0792 61.6712 18.75 62.5 18.75Z" fill="black"/>
</svg>
