<svg width="94" height="88" viewBox="0 0 94 88" fill="none" xmlns="http://www.w3.org/2000/svg">
<path d="M17.4488 2.05333C18.0003 1.40938 18.6851 0.892383 19.4559 0.537921C20.2266 0.18346 21.0652 -5.57372e-05 21.9138 1.26983e-08H72.0863C72.9348 -5.57372e-05 73.7734 0.18346 74.5441 0.537921C75.3149 0.892383 75.9997 1.40938 76.5512 2.05333L91.8791 19.9115C93.2477 21.5062 93.9999 23.5371 94 25.6373V27.1333C94.0003 30.0372 93.0921 32.8686 91.4022 35.2318C89.7123 37.595 87.3252 39.3719 84.5746 40.3142C81.824 41.2565 78.8472 41.3171 76.0605 40.4875C73.2737 39.6578 70.8161 37.9795 69.0312 35.6869C67.7281 37.3638 66.0579 38.7204 64.1484 39.6529C62.239 40.5854 60.1412 41.069 58.0156 41.0667C55.8901 41.069 53.7922 40.5854 51.8828 39.6529C49.9734 38.7204 48.3031 37.3638 47 35.6869C45.6969 37.3638 44.0266 38.7204 42.1172 39.6529C40.2078 40.5854 38.1099 41.069 35.9844 41.0667C33.8588 41.069 31.761 40.5854 29.8516 39.6529C27.9421 38.7204 26.2719 37.3638 24.9688 35.6869C23.1839 37.9795 20.7263 39.6578 17.9395 40.4875C15.1528 41.3171 12.176 41.2565 9.42541 40.3142C6.67478 39.3719 4.28771 37.595 2.59782 35.2318C0.907933 32.8686 -0.000320767 30.0372 8.49792e-08 27.1333V25.6373C7.40693e-05 23.5371 0.752333 21.5062 2.12088 19.9115L17.4488 2.05333ZM27.9062 27.1333C27.9063 29.2727 28.7573 31.3245 30.2723 32.8373C31.7872 34.3501 33.8419 35.2 35.9844 35.2C38.1268 35.2 40.1815 34.3501 41.6965 32.8373C43.2114 31.3245 44.0625 29.2727 44.0625 27.1333C44.0625 26.3554 44.372 25.6093 44.9229 25.0592C45.4738 24.509 46.2209 24.2 47 24.2C47.7791 24.2 48.5262 24.509 49.0771 25.0592C49.628 25.6093 49.9375 26.3554 49.9375 27.1333C49.9375 29.2727 50.7886 31.3245 52.3035 32.8373C53.8185 34.3501 55.8732 35.2 58.0156 35.2C60.1581 35.2 62.2128 34.3501 63.7277 32.8373C65.2427 31.3245 66.0938 29.2727 66.0938 27.1333C66.0938 26.3554 66.4032 25.6093 66.9541 25.0592C67.505 24.509 68.2522 24.2 69.0312 24.2C69.8103 24.2 70.5575 24.509 71.1084 25.0592C71.6593 25.6093 71.9688 26.3554 71.9688 27.1333C71.9688 29.2727 72.8198 31.3245 74.3348 32.8373C75.8497 34.3501 77.9044 35.2 80.0469 35.2C82.1893 35.2 84.244 34.3501 85.759 32.8373C87.2739 31.3245 88.125 29.2727 88.125 27.1333V25.6373C88.1251 24.9382 87.875 24.262 87.42 23.7307L72.0863 5.86667H21.9138L6.58 23.7307C6.12496 24.262 5.87495 24.9382 5.875 25.6373V27.1333C5.875 29.2727 6.72609 31.3245 8.24103 32.8373C9.75597 34.3501 11.8107 35.2 13.9531 35.2C16.0956 35.2 18.1503 34.3501 19.6652 32.8373C21.1802 31.3245 22.0312 29.2727 22.0312 27.1333C22.0312 26.3554 22.3407 25.6093 22.8916 25.0592C23.4425 24.509 24.1897 24.2 24.9688 24.2C25.7478 24.2 26.495 24.509 27.0459 25.0592C27.5968 25.6093 27.9062 26.3554 27.9062 27.1333ZM8.8125 44C9.59157 44 10.3387 44.309 10.8896 44.8592C11.4405 45.4093 11.75 46.1554 11.75 46.9333V82.1333H17.625V52.8C17.625 51.2441 18.244 49.7519 19.3457 48.6516C20.4475 47.5514 21.9419 46.9333 23.5 46.9333H41.125C42.6831 46.9333 44.1775 47.5514 45.2793 48.6516C46.381 49.7519 47 51.2441 47 52.8V82.1333H82.25V46.9333C82.25 46.1554 82.5595 45.4093 83.1104 44.8592C83.6613 44.309 84.4084 44 85.1875 44C85.9666 44 86.7137 44.309 87.2646 44.8592C87.8155 45.4093 88.125 46.1554 88.125 46.9333V82.1333H91.0625C91.8416 82.1333 92.5887 82.4424 93.1396 82.9925C93.6905 83.5426 94 84.2887 94 85.0667C94 85.8446 93.6905 86.5907 93.1396 87.1409C92.5887 87.691 91.8416 88 91.0625 88H2.9375C2.15843 88 1.41126 87.691 0.860374 87.1409C0.309486 86.5907 8.49792e-08 85.8446 8.49792e-08 85.0667C8.49792e-08 84.2887 0.309486 83.5426 0.860374 82.9925C1.41126 82.4424 2.15843 82.1333 2.9375 82.1333H5.875V46.9333C5.875 46.1554 6.18449 45.4093 6.73537 44.8592C7.28626 44.309 8.03343 44 8.8125 44ZM23.5 82.1333H41.125V52.8H23.5V82.1333ZM52.875 52.8C52.875 51.2441 53.494 49.7519 54.5957 48.6516C55.6975 47.5514 57.1919 46.9333 58.75 46.9333H70.5C72.0581 46.9333 73.5525 47.5514 74.6543 48.6516C75.756 49.7519 76.375 51.2441 76.375 52.8V70.4C76.375 71.9559 75.756 73.4481 74.6543 74.5484C73.5525 75.6486 72.0581 76.2667 70.5 76.2667H58.75C57.1919 76.2667 55.6975 75.6486 54.5957 74.5484C53.494 73.4481 52.875 71.9559 52.875 70.4V52.8ZM70.5 52.8H58.75V70.4H70.5V52.8Z" fill="black"/>
</svg>
