<svg width="93" height="85" viewBox="0 0 93 85" fill="none" xmlns="http://www.w3.org/2000/svg">
<path d="M63.3333 80V13.3333C63.3333 11.1232 62.4554 9.00358 60.8926 7.44078C59.3298 5.87797 57.2101 5 55 5H38.3333C36.1232 5 34.0036 5.87797 32.4408 7.44078C30.878 9.00358 30 11.1232 30 13.3333V80" stroke="black" stroke-width="8.33333" stroke-linecap="round" stroke-linejoin="round"/>
<path d="M80 21.666H13.3333C8.73096 21.666 5 25.397 5 29.9993V71.666C5 76.2684 8.73096 79.9993 13.3333 79.9993H80C84.6024 79.9993 88.3333 76.2684 88.3333 71.666V29.9993C88.3333 25.397 84.6024 21.666 80 21.666Z" stroke="black" stroke-width="8.33333" stroke-linecap="round" stroke-linejoin="round"/>
</svg>
