<svg width="66" height="88" viewBox="0 0 66 88" fill="none" xmlns="http://www.w3.org/2000/svg">
<path d="M53.4284 15.7148H65.9999V28.2863H53.4284V15.7148ZM53.4284 34.572H65.9999V47.1434H53.4284V34.572ZM34.5713 15.7148H47.1427V28.2863H34.5713V15.7148ZM34.5713 34.572H47.1427V47.1434H34.5713V34.572Z" fill="black"/>
<path d="M26.7143 75.4286C29.3179 75.4286 31.4286 73.3179 31.4286 70.7143C31.4286 68.1107 29.3179 66 26.7143 66C24.1107 66 22 68.1107 22 70.7143C22 73.3179 24.1107 75.4286 26.7143 75.4286Z" fill="black"/>
<path d="M47.1429 88H6.28571C4.61864 88 3.01984 87.3378 1.84104 86.159C0.662243 84.9802 0 83.3814 0 81.7143V6.28571C0 4.61864 0.662243 3.01984 1.84104 1.84104C3.01984 0.662243 4.61864 0 6.28571 0H47.1429V6.28571H6.28571V81.7143H47.1429V56.5714H53.4286V81.7143C53.4286 83.3814 52.7663 84.9802 51.5875 86.159C50.4087 87.3378 48.8099 88 47.1429 88Z" fill="black"/>
</svg>
