<svg width="83" height="91" viewBox="0 0 83 91" fill="none" xmlns="http://www.w3.org/2000/svg">
<path d="M4 4H62.3333C70.1917 4 74.1167 4 76.5583 6.44167C79 8.88333 79 12.8083 79 20.6667V45.6667C79 53.525 79 57.45 76.5583 59.8917C74.1167 62.3333 70.1917 62.3333 62.3333 62.3333H33.1667M37.3333 22.75H62.3333M4 66.5V49.8333C4 45.9042 4 43.9417 5.22083 42.7208C6.44167 41.5 8.40417 41.5 12.3333 41.5H20.6667M4 66.5H20.6667M4 66.5V87.3333M20.6667 41.5V66.5M20.6667 41.5H45.6667M20.6667 66.5V87.3333" stroke="black" stroke-width="6.25" stroke-linecap="round" stroke-linejoin="round"/>
<path d="M20.6667 22.7493C20.6667 24.9595 19.7887 27.0791 18.2259 28.6419C16.6631 30.2047 14.5435 31.0827 12.3333 31.0827C10.1232 31.0827 8.00358 30.2047 6.44078 28.6419C4.87797 27.0791 4 24.9595 4 22.7493C4 20.5392 4.87797 18.4196 6.44078 16.8568C8.00358 15.294 10.1232 14.416 12.3333 14.416C14.5435 14.416 16.6631 15.294 18.2259 16.8568C19.7887 18.4196 20.6667 20.5392 20.6667 22.7493Z" stroke="black" stroke-width="6.25" stroke-linecap="round" stroke-linejoin="round"/>
</svg>
