<svg width="99" height="91" viewBox="0 0 99 91" fill="none" xmlns="http://www.w3.org/2000/svg">
<path d="M13.7417 66.5C17.3993 72.8352 22.6604 78.0958 28.9959 81.7529C35.3314 85.41 42.5181 87.3346 49.8334 87.3333C57.1486 87.3346 64.3353 85.41 70.6708 81.7529C77.0063 78.0958 82.2674 72.8352 85.925 66.5M13.7417 24.8333C17.3993 18.4981 22.6604 13.2375 28.9959 9.58046C35.3314 5.92338 42.5181 3.99872 49.8334 4C57.1486 3.99872 64.3353 5.92338 70.6708 9.58046C77.0063 13.2375 82.2674 18.4981 85.925 24.8333" stroke="black" stroke-width="6.25" stroke-linecap="round" stroke-linejoin="round"/>
<path d="M54 87.1257C54 87.1257 59.8667 79.4048 63.5625 66.5006M54 4.20898C54 4.20898 59.8667 11.9256 63.5625 24.834M45.6667 87.1257C45.6667 87.1257 39.8 79.409 36.1042 66.5006M45.6667 4.20898C45.6667 4.20898 39.8 11.9256 36.1042 24.834M37.3333 37.334L43.5833 58.1673L49.8333 37.334L56.0833 58.1673L62.3333 37.334M4 37.334L10.25 58.1673L16.5 37.334L22.75 58.1673L29 37.334M70.6667 37.334L76.9167 58.1673L83.1667 37.334L89.4167 58.1673L95.6667 37.334" stroke="black" stroke-width="6.25" stroke-linecap="round" stroke-linejoin="round"/>
</svg>
