<svg id="BACKGROUND" xmlns="http://www.w3.org/2000/svg" xmlns:xlink="http://www.w3.org/1999/xlink" viewBox="0 0 750 500"><defs><style>.cls-1{fill:#00c48e;}.cls-2{clip-path:url(#clip-path);}.cls-12,.cls-13,.cls-14,.cls-16,.cls-19,.cls-20,.cls-3,.cls-4{fill:none;stroke-miterlimit:10;}.cls-16,.cls-19,.cls-3,.cls-4{stroke:#f9fbfc;}.cls-12,.cls-13,.cls-14,.cls-19,.cls-20,.cls-3,.cls-4{stroke-width:2px;}.cls-3{stroke-dasharray:8.4 11.55 8.4 11.55 8.4 11.55;}.cls-5{fill:url(#linear-gradient);}.cls-6{fill:url(#linear-gradient-2);}.cls-7{fill:#f9fbfc;}.cls-8{fill:url(#linear-gradient-3);}.cls-9{fill:url(#linear-gradient-4);}.cls-10{fill:url(#linear-gradient-5);}.cls-11{fill:url(#linear-gradient-6);}.cls-12,.cls-13,.cls-14,.cls-20{stroke:#006247;}.cls-13{stroke-dasharray:9.57 13.16 9.57 13.16;}.cls-14{stroke-dasharray:9.57 13.16 9.57 13.16 9.57 13.16;}.cls-15{opacity:0.8;fill:url(#linear-gradient-7);}.cls-16{stroke-width:4px;}.cls-17{fill:#00936b;}.cls-18{fill:url(#linear-gradient-8);}.cls-19,.cls-20{stroke-dasharray:8 11 8 11 8 11;}.cls-21{fill:url(#linear-gradient-9);}.cls-22{fill:url(#linear-gradient-10);}.cls-23{fill:#004f44;}</style><clipPath id="clip-path"><rect class="cls-1" width="750" height="500"/></clipPath><linearGradient id="linear-gradient" x1="608.7" y1="351.2" x2="891.19" y2="351.2" gradientTransform="matrix(0.71, 0.73, -0.71, 0.73, 464.1, -458.87)" gradientUnits="userSpaceOnUse"><stop offset="0.03" stop-color="#00c48e"/><stop offset="0.04" stop-color="#00c38e"/><stop offset="0.34" stop-color="#00996f"/><stop offset="0.61" stop-color="#007b59"/><stop offset="0.84" stop-color="#00694c"/><stop offset="1" stop-color="#006247"/></linearGradient><linearGradient id="linear-gradient-2" x1="-59" y1="354.49" x2="179.3" y2="354.49" gradientTransform="matrix(1, 0, 0, 1, 0, 0)" xlink:href="#linear-gradient"/><linearGradient id="linear-gradient-3" x1="388.47" y1="45.2" x2="573.3" y2="45.2" gradientUnits="userSpaceOnUse"><stop offset="0.03" stop-color="#00c48e"/><stop offset="0.08" stop-color="#00ba86"/><stop offset="0.24" stop-color="#009a70"/><stop offset="0.41" stop-color="#00815e"/><stop offset="0.59" stop-color="#007051"/><stop offset="0.78" stop-color="#006549"/><stop offset="1" stop-color="#006247"/></linearGradient><linearGradient id="linear-gradient-4" x1="-38" y1="184.45" x2="764.5" y2="184.45" gradientUnits="userSpaceOnUse"><stop offset="0.03" stop-color="#00c48e"/><stop offset="0.04" stop-color="#00c38e"/><stop offset="0.15" stop-color="#00996f"/><stop offset="0.25" stop-color="#007b59"/><stop offset="0.33" stop-color="#00694c"/><stop offset="0.39" stop-color="#006247"/><stop offset="1" stop-color="#004f44"/></linearGradient><linearGradient id="linear-gradient-5" x1="-99.06" y1="81.61" x2="357" y2="81.61" gradientUnits="userSpaceOnUse"><stop offset="0.06" stop-color="#006247"/><stop offset="0.56" stop-color="#005545"/><stop offset="1" stop-color="#004f44"/></linearGradient><linearGradient id="linear-gradient-6" x1="119" y1="-89.5" x2="768.06" y2="-89.5" gradientTransform="matrix(1, 0, 0, 1, 0, 0)" xlink:href="#linear-gradient"/><linearGradient id="linear-gradient-7" x1="197.11" y1="509.97" x2="288.22" y2="509.97" gradientTransform="matrix(1, 0, 0, 1, 0, 0)" xlink:href="#linear-gradient"/><linearGradient id="linear-gradient-8" x1="90" y1="473" x2="491" y2="473" xlink:href="#linear-gradient-5"/><linearGradient id="linear-gradient-9" x1="297.83" y1="259.33" x2="371.46" y2="131.8" gradientUnits="userSpaceOnUse"><stop offset="0.03" stop-color="#00c48e"/><stop offset="0.05" stop-color="#00c08c"/><stop offset="0.24" stop-color="#009872"/><stop offset="0.42" stop-color="#00785e"/><stop offset="0.59" stop-color="#006150"/><stop offset="0.76" stop-color="#005447"/><stop offset="0.91" stop-color="#004f44"/></linearGradient><linearGradient id="linear-gradient-10" x1="424.02" y1="128.42" x2="473.15" y2="128.42" xlink:href="#linear-gradient-9"/></defs><rect class="cls-1" width="750" height="500"/><g class="cls-2"><line class="cls-3" x1="279.02" y1="560.3" x2="445.79" y2="396.66"/><line class="cls-4" x1="449.91" y1="392.61" x2="452.77" y2="389.81"/><rect class="cls-5" x="703.64" y="184.41" width="84.85" height="325.8" transform="translate(-27.07 629.27) rotate(-45)"/><polygon class="cls-6" points="140.97 386.4 -16.44 543.81 2.72 562.98 179.3 386.4 -59 146 -16.44 228.98 140.97 386.4"/><polygon class="cls-7" points="75.26 386.4 -82.16 543.81 -62.99 562.98 113.59 386.4 -62.99 209.82 -82.16 228.98 75.26 386.4"/><rect class="cls-7" x="313.74" y="-11.74" width="184.6" height="3.31" transform="translate(126.05 284.16) rotate(-45)"/><polygon class="cls-8" points="573.3 0 480.89 90.39 388.47 0 573.3 0"/><circle class="cls-1" cx="478.33" cy="-7.56" r="45.56"/><polygon class="cls-7" points="700.97 97.32 497.69 -105.96 472.94 -81.21 700.97 146.82 929 -81.21 904.25 -105.96 700.97 97.32"/><polygon class="cls-9" points="398.97 353.4 19 -25 -38 -34 398.97 402.9 764.5 38 758 -4.5 398.97 353.4"/><polygon class="cls-10" points="128.97 158.5 -74.31 -44.78 -99.06 -20.03 128.97 208 357 -20.03 332.25 -44.78 128.97 158.5"/><path class="cls-11" d="M455,235,119-101,432-414l336,336Zm-271-336L455,170,703-78,432-349Z"/><polygon class="cls-7" points="327.37 -81.12 161.5 81.12 -4.37 -81.12 327.37 -81.12"/><line class="cls-12" x1="298.58" y1="68.77" x2="301.43" y2="65.97"/><line class="cls-13" x1="310.83" y1="56.75" x2="338.58" y2="29.52"/><line class="cls-14" x1="343.28" y1="24.91" x2="387.26" y2="-18.25"/><circle class="cls-15" cx="242.67" cy="509.97" r="45.56"/><polygon class="cls-7" points="484.79 532.13 550.5 467.87 616.21 532.13 484.79 532.13"/><rect class="cls-16" x="566.03" y="397.38" width="180.76" height="295.09" transform="translate(-193.06 623.76) rotate(-45)"/><polygon class="cls-12" points="407.88 541.77 538.5 414.02 669.12 541.77 407.88 541.77"/><polygon class="cls-17" points="741.62 589.08 766.37 564.33 538.34 336.3 310.31 564.33 335.06 589.08 538.34 385.79 741.62 589.08"/><polygon class="cls-18" points="262.97 346.61 491 574.64 466.25 599.39 262.97 396.11 124 534.33 90 520.33 262.97 346.61"/><circle class="cls-19" cx="-24.77" cy="8.05" r="74.98" transform="translate(-12.95 -15.16) rotate(-45)"/><circle class="cls-19" cx="777.34" cy="397.08" r="64.89"/><circle class="cls-20" cx="5.78" cy="481" r="85.5"/><polygon class="cls-21" points="400.61 318.68 224.67 148.67 400.67 148.67 400.61 318.68"/><polygon class="cls-22" points="473.15 115.67 448.58 141.18 424.02 115.67 473.15 115.67"/><rect class="cls-7" x="293" y="263.28" width="2" height="130.11" transform="translate(-146.06 304.06) rotate(-45)"/><rect class="cls-4" x="248.78" y="72.2" width="16.54" height="16.54" transform="translate(18.39 205.33) rotate(-45)"/><rect class="cls-4" x="581.73" y="307.73" width="16.54" height="16.54" transform="translate(-50.64 509.75) rotate(-45)"/><rect class="cls-7" x="630.43" y="316.34" width="2" height="78.28" transform="translate(-61.52 567.36) rotate(-46.38)"/><circle class="cls-4" cx="129.86" cy="264.29" r="7"/><rect class="cls-7" x="65.5" y="131.08" width="2" height="142.84" transform="translate(-123.71 106.33) rotate(-45)"/><rect class="cls-7" x="18.71" y="98.38" width="2" height="142.84" transform="translate(-114.29 63.67) rotate(-45)"/><circle class="cls-4" cx="681.82" cy="176.65" r="7"/><rect class="cls-7" x="744.18" y="167.02" width="2" height="142.84" transform="translate(49.66 596.76) rotate(-45)"/><rect class="cls-7" x="790.97" y="199.73" width="2" height="142.84" transform="translate(40.24 639.42) rotate(-45)"/><circle class="cls-4" cx="332.15" cy="184.9" r="7"/><line class="cls-4" x1="321.48" y1="173.9" x2="264.82" y2="119.9"/><circle class="cls-23" cx="726.75" cy="172" r="2.25"/><circle class="cls-7" cx="444.75" cy="47.25" r="2.25"/><circle class="cls-7" cx="454.75" cy="47.25" r="2.25"/><circle class="cls-7" cx="444.75" cy="58.75" r="2.25"/><circle class="cls-7" cx="454.75" cy="58.75" r="2.25"/><circle class="cls-7" cx="444.75" cy="70.25" r="2.25"/><circle class="cls-7" cx="454.75" cy="70.25" r="2.25"/><circle class="cls-7" cx="444.75" cy="81.75" r="2.25"/><circle class="cls-7" cx="454.75" cy="81.75" r="2.25"/><circle class="cls-7" cx="444.75" cy="93.25" r="2.25"/><circle class="cls-7" cx="454.75" cy="93.25" r="2.25"/><circle class="cls-23" cx="553.08" cy="279.5" r="2.25"/><circle class="cls-23" cx="563.08" cy="279.5" r="2.25"/><circle class="cls-23" cx="553.08" cy="291" r="2.25"/><circle class="cls-23" cx="563.08" cy="291" r="2.25"/><circle class="cls-7" cx="311.33" cy="450.75" r="2.25"/><circle class="cls-7" cx="311.33" cy="462.25" r="2.25"/><circle class="cls-7" cx="311.33" cy="427.92" r="2.25"/><circle class="cls-7" cx="311.33" cy="439.42" r="2.25"/><circle class="cls-7" cx="302.06" cy="462.23" r="2.25"/><circle class="cls-7" cx="302.06" cy="473.73" r="2.25"/><circle class="cls-7" cx="302.06" cy="439.4" r="2.25"/><circle class="cls-7" cx="302.06" cy="450.9" r="2.25"/><circle class="cls-23" cx="115" cy="90" r="2.25"/><circle class="cls-23" cx="103.5" cy="90" r="2.25"/><circle class="cls-23" cx="205.75" cy="299" r="2.25"/><circle class="cls-23" cx="205.75" cy="309" r="2.25"/><circle class="cls-23" cx="194.25" cy="299" r="2.25"/><circle class="cls-23" cx="194.25" cy="309" r="2.25"/><circle class="cls-23" cx="182.75" cy="299" r="2.25"/><circle class="cls-23" cx="182.75" cy="309" r="2.25"/><circle class="cls-23" cx="171.25" cy="299" r="2.25"/><circle class="cls-23" cx="171.25" cy="309" r="2.25"/><circle class="cls-23" cx="159.75" cy="299" r="2.25"/><circle class="cls-23" cx="159.75" cy="309" r="2.25"/><circle class="cls-23" cx="228.75" cy="319.75" r="2.25"/><circle class="cls-23" cx="228.75" cy="329.75" r="2.25"/><circle class="cls-23" cx="217.25" cy="319.75" r="2.25"/><circle class="cls-23" cx="217.25" cy="329.75" r="2.25"/><circle class="cls-23" cx="205.75" cy="319.75" r="2.25"/><circle class="cls-23" cx="205.75" cy="329.75" r="2.25"/><circle class="cls-23" cx="194.25" cy="319.75" r="2.25"/><circle class="cls-23" cx="194.25" cy="329.75" r="2.25"/><circle class="cls-23" cx="182.75" cy="319.75" r="2.25"/><circle class="cls-23" cx="182.75" cy="329.75" r="2.25"/></g></svg>