<svg id="BACKGROUND" xmlns="http://www.w3.org/2000/svg" viewBox="0 0 750.08 500.15"><defs><style>.cls-1,.cls-6,.cls-7,.cls-8{fill:none;}.cls-2{fill:#47b293;}.cls-3{fill:#1f995c;}.cls-4{fill:#1b5946;}.cls-5{fill:#143329;}.cls-6{stroke:#47b293;}.cls-6,.cls-7,.cls-8{stroke-linecap:round;stroke-linejoin:round;stroke-width:0;}.cls-7{stroke:#143329;}.cls-8{stroke:#1b5946;}</style></defs><path class="cls-1" d="M309.2,0h0c0,.12,0-.12,0,0Z" transform="translate(0.03 0.03)"/><path class="cls-1" d="M291.88,0h0c0,.12,0-.12,0,0Z" transform="translate(0.03 0.03)"/><path class="cls-1" d="M357.92,0c0-.12,0,.12,0,0h0Z" transform="translate(0.03 0.03)"/><path class="cls-1" d="M375.24,0c0-.12,0,.12,0,0h0Z" transform="translate(0.03 0.03)"/><path class="cls-2" d="M291.88,0h17.31c0-.12,0,.12,0,0Z" transform="translate(0.03 0.03)"/><path class="cls-2" d="M291.87,0h0c0-.12,0,.12,0,0h0Z" transform="translate(0.03 0.03)"/><rect class="cls-3" x="0.03" y="0.03" width="750" height="500.01"/><path class="cls-2" d="M744.37,416.3a43.51,43.51,0,0,0,5.63.38H725.75V462.2a41.12,41.12,0,0,1,7.42,4.43A83,83,0,0,0,750,421.84c.12-1.84,0-3.68,0-5.54h-5.63Z" transform="translate(0.03 0.03)"/><path class="cls-2" d="M741.77,475.28A41.57,41.57,0,0,1,750,499.63h0V475.28h-8.23Z" transform="translate(0.03 0.03)"/><path class="cls-2" d="M583.27,416.78a83.12,83.12,0,0,0,7.46,34.07l17.06-17.07v-17Z" transform="translate(0.03 0.03)"/><rect class="cls-2" x="583.3" y="500.04" width="24.52" height="0.11"/><polygon class="cls-2" points="499.93 416.71 500.14 416.71 500.14 416.71 499.93 416.71 499.93 416.71"/><path class="cls-2" d="M392.43,83.23h0C392.44,83.35,392.43,83.1,392.43,83.23Z" transform="translate(0.03 0.03)"/><path class="cls-2" d="M392.44,107.45,374.9,125h0V142h17.42a83.13,83.13,0,0,1-17.42,13.3v11.31h17.55V142h24.29V129.35a41.88,41.88,0,0,1,0-4.34,41.88,41.88,0,0,1,0-4.34V83.23h0a83.3,83.3,0,0,1-24.3,58.6Z" transform="translate(0.03 0.03)"/><path class="cls-2" d="M375.11,83.23h0C375.12,83.35,375.11,83.1,375.11,83.23Z" transform="translate(0.03 0.03)"/><path class="cls-2" d="M250.12,166.56h24.35V142.4c-.15-.14-.29-.29-.43-.44H250.12Z" transform="translate(0.03 0.03)"/><path class="cls-2" d="M374.9,58.63v13a83.76,83.76,0,0,0,41.84,11.56h0V58.63H374.9Z" transform="translate(0.03 0.03)"/><path class="cls-2" d="M332.94,0h0l24.87,24.58V0" transform="translate(0.03 0.03)"/><path class="cls-2" d="M357.82,0a59.11,59.11,0,0,0,58.92,58.62c.07,0-.08,0,0,0V45.88c-.14-1.39,0-2.79,0-4.21v-.36h0v0H375.13V0h0" transform="translate(0.03 0.03)"/><path class="cls-2" d="M379.78,18.77a41.76,41.76,0,0,0,17.89,17.89,43.72,43.72,0,0,0,19.07,4.63L375.14,0h0A42.57,42.57,0,0,0,379.78,18.77Z" transform="translate(0.03 0.03)"/><path class="cls-2" d="M607.79,433.78l17-17h-17C607.79,422,606.53,429,607.79,433.78Z" transform="translate(0.03 0.03)"/><path class="cls-2" d="M708.23,488.57V475.28H666.6a59.18,59.18,0,0,0,41.52-16.94,42.5,42.5,0,0,1-5.45-.38H666.6a42.16,42.16,0,0,0,20.57-5.34,41.63,41.63,0,0,1-20.57-35.84h0l-29.44,29.3a41.6,41.6,0,0,0,29.44,12.36H625.11v-.31l-.2.2a58.9,58.9,0,0,0,41.69,17.43H624.9v13.06a82.71,82.71,0,0,0,32.88,10.8,80.21,80.21,0,0,0,8.82.49v-.48A83.56,83.56,0,0,0,708.23,488.57Z" transform="translate(0.03 0.03)"/><path class="cls-2" d="M708.23,458v.27a58.77,58.77,0,0,0,17.51-41.55H708.43V458Z" transform="translate(0.03 0.03)"/><path class="cls-2" d="M708.42,416.68h-.19v3.66C708.35,419.13,708.41,417.91,708.42,416.68Z" transform="translate(0.03 0.03)"/><path class="cls-2" d="M583.27,458a41,41,0,0,0-21.11,5.84,41.68,41.68,0,0,1,21.11,35.83h0V458Z" transform="translate(0.03 0.03)"/><polygon class="cls-2" points="541.64 457.99 583.3 416.71 541.64 416.71 541.64 457.99"/><path class="cls-2" d="M249.9,208.37H208.32c0,21.16-15.87,39.12-36.31,41.79H250.1V212.38c-.13-1.33-.2-2.65-.2-4Z" transform="translate(0.03 0.03)"/><path class="cls-2" d="M249.77,166.56H239.44a83.83,83.83,0,0,0-62.08,41.81h31A41.72,41.72,0,0,1,249.77,166.56Z" transform="translate(0.03 0.03)"/><rect class="cls-2" x="250.03" y="166.5" height="0.2"/><path class="cls-2" d="M3.3,58.16A82.71,82.71,0,0,0,0,75.5H0v7.72H35.14A42.17,42.17,0,0,1,3.3,58.16Z" transform="translate(0.03 0.03)"/><path class="cls-2" d="M83.24,41.87A42.09,42.09,0,0,1,48,83.23H83.24Z" transform="translate(0.03 0.03)"/><path class="cls-2" d="M71.67,0A83,83,0,0,0,57.59,3.2,41.7,41.7,0,0,1,83.24,41.48V0h0" transform="translate(0.03 0.03)"/><path class="cls-2" d="M499.9,41.32V0h41.71L499.9,41.67V42a41.91,41.91,0,0,1-36.35,41.22h78.06V0H458.44A41.66,41.66,0,0,1,499.9,41.32Z" transform="translate(0.03 0.03)"/><path class="cls-2" d="M750,166.56v41.81a41.78,41.78,0,0,0-20.93,5.56A42.59,42.59,0,0,1,750,250.16h0v-83.6Z" transform="translate(0.03 0.03)"/><path class="cls-2" d="M625.1,250.16c0,.12,0-.12,0,0" transform="translate(0.03 0.03)"/><polygon class="cls-2" points="124.93 83.26 166.65 83.26 166.65 42.06 166.65 41.71 166.65 0.03 124.93 41.71 124.93 83.26"/><polygon class="cls-2" points="124.93 0.03 166.65 0.03 166.65 0.03 166.65 0.03 166.65 0.03 83.27 0.03 83.27 0.03 83.27 41.71 124.93 0.03"/><path class="cls-2" d="M499.9,125a41.91,41.91,0,0,1-36.27,41.55h36.48V124.64h-.22C499.89,124.77,499.9,124.89,499.9,125Z" transform="translate(0.03 0.03)"/><polygon class="cls-2" points="49.06 159.25 83.27 125.05 83.27 125.04 41.6 125.04 24.35 142.29 0.03 166.6 0.03 166.6 41.6 166.6 49.06 159.25"/><path class="cls-2" d="M166.62,416.67H124.9v41.65h0a41.71,41.71,0,0,1,41.71,41.47V416.68Z" transform="translate(0.03 0.03)"/><rect class="cls-2" x="108.12" y="108.23" width="33.56" height="33.56" transform="translate(-51.78 124.96) rotate(-45)"/><path class="cls-2" d="M374.9,375h41.84V333.27h0a41.87,41.87,0,0,0-41.84,41.49Z" transform="translate(0.03 0.03)"/><polyline class="cls-2" points="499.93 333.3 499.93 333.3 499.93 333.3 499.93 333.3 499.93 333.3"/><polyline class="cls-2" points="499.93 291.6 499.93 291.6 499.93 291.6"/><path class="cls-2" d="M499.9,250.16H416.74c0,1.44-.15-1.4,0,0,2.13,21,19.87,41.36,41.42,41.4h.14A41.43,41.43,0,0,0,499.9,250.16Z" transform="translate(0.03 0.03)"/><path class="cls-2" d="M458.3,291.56h-.14a41.79,41.79,0,0,0-41.42,37.52c-.13,1.28,0,2.88,0,4.19H499.9" transform="translate(0.03 0.03)"/><path class="cls-2" d="M541.61,333.27h0V291.56H499.9A41.85,41.85,0,0,0,541.61,333.27Z" transform="translate(0.03 0.03)"/><path class="cls-2" d="M541.61,291.56v-41.4H499.9A41.48,41.48,0,0,0,541.61,291.56Z" transform="translate(0.03 0.03)"/><path class="cls-2" d="M583.27,333.27H499.9A41.82,41.82,0,0,0,541.61,375s0,0,0,0,0,0,0,0A41.78,41.78,0,0,0,583.27,333.27Z" transform="translate(0.03 0.03)"/><path class="cls-2" d="M541.61,458.31H458.4A41.72,41.72,0,0,0,500,500h.13A41.62,41.62,0,0,0,541.61,458.31Z" transform="translate(0.03 0.03)"/><path class="cls-2" d="M583.27,250.16H624.9V208.37A41.74,41.74,0,0,0,583.27,250.16Z" transform="translate(0.03 0.03)"/><path class="cls-2" d="M624.9,208.37a41.82,41.82,0,0,0,41.7-41.81H624.9Z" transform="translate(0.03 0.03)"/><polygon class="cls-2" points="666.63 41.71 624.93 83.26 666.63 83.26 666.63 83.26 666.63 83.26 666.63 83.26 666.63 83.26 666.63 41.71"/><rect class="cls-2" x="608.12" y="108.23" width="33.56" height="33.56" transform="translate(94.67 478.52) rotate(-45)"/><polygon class="cls-2" points="208.35 416.71 208.35 416.72 166.65 458.38 208.35 458.38 208.35 458.37 249.92 416.72 249.93 416.71 249.93 416.71 208.35 416.71"/><path class="cls-4" d="M124.9,250.16c0-.07,0,.07,0,0H83.24a41.77,41.77,0,0,0,36.21,41.4,40.9,40.9,0,0,0,5.31,0h.14Z" transform="translate(0.03 0.03)"/><path class="cls-4" d="M42,291.56H83.24a42.36,42.36,0,0,1-5.52,0c-19.32-2.55-34.45-21.79-36-41.4-.09-1.1-.14,1.12-.14,0v41.4H42Z" transform="translate(0.03 0.03)"/><path class="cls-4" d="M41.57,319.45v13.82H83.24a47.72,47.72,0,0,1-5.61,0,42,42,0,0,1-12.35-4,41.57,41.57,0,0,1-23.71-37.71v27.89Z" transform="translate(0.03 0.03)"/><path class="cls-4" d="M41.27,333.27a42.76,42.76,0,0,1-5.31,0c-20.36-2.74-36-20.6-36-41.71v41.71H41.27Z" transform="translate(0.03 0.03)"/><polygon class="cls-4" points="83.27 500.04 83.27 500.04 124.93 500.04 124.93 500.04 83.27 500.04 83.27 500.04"/><polygon class="cls-4" points="124.93 41.71 166.65 0.03 124.93 0.03 83.27 41.36 83.27 41.71 124.93 41.71"/><path class="cls-4" d="M166.62,124.64v0a41.79,41.79,0,0,1,41.7-41.41h-41.7Z" transform="translate(0.03 0.03)"/><path class="cls-4" d="M208.32,83.23A41.81,41.81,0,0,1,249.9,125V83.23Z" transform="translate(0.03 0.03)"/><path class="cls-4" d="M249.9,166.56h0V125a41.5,41.5,0,0,1-41.58,41.55H249.9Z" transform="translate(0.03 0.03)"/><path class="cls-4" d="M166.62,142v24.6h41.7a41.75,41.75,0,0,1-41.7-37.88c-.11-1.21,0-2.44,0-3.67Z" transform="translate(0.03 0.03)"/><path class="cls-4" d="M208.32,208.37H249.9V166.56h-.13A41.72,41.72,0,0,0,208.32,208.37Z" transform="translate(0.03 0.03)"/><path class="cls-4" d="M208.32,208.37h-41.7v41.79h0a42.14,42.14,0,0,0,5.39,0C192.45,247.49,208.32,229.53,208.32,208.37Z" transform="translate(0.03 0.03)"/><polygon class="cls-4" points="166.65 42.06 208.35 83.26 208.35 41.71 166.65 0.03 166.65 0.03 166.65 41.71 166.65 42.06"/><path class="cls-4" d="M291.57,291.56h41.37v-41.4h0A41.25,41.25,0,0,0,291.57,291.56Z" transform="translate(0.03 0.03)"/><path class="cls-4" d="M250.13,291.56h-.23v41.71h.54a41.6,41.6,0,0,0,41.13-41.71H250.13Z" transform="translate(0.03 0.03)"/><path class="cls-4" d="M208.32,250.16h0v41.4a41.55,41.55,0,0,0,41.79-41.4Z" transform="translate(0.03 0.03)"/><polygon class="cls-4" points="291.6 208.4 291.6 208.4 291.6 208.4 291.6 208.4"/><path class="cls-4" d="M291.57,177V166.56H249.9c0,1.36.07,2.82.2,4.15l0,.34a41.71,41.71,0,0,0,41.31,37.32h.13Z" transform="translate(0.03 0.03)"/><path class="cls-4" d="M250.13,208.37h-.23c0,1.36.07,2.68.2,4l0,.34c2,19.17,17,35,36.05,37.44a42.14,42.14,0,0,0,5.39,0h0V208.37H250.13Z" transform="translate(0.03 0.03)"/><path class="cls-4" d="M293.11,177.88c3.9,14,14.89,26.57,28.85,30.49,3.52,1,7.15,0,11,0h0V166.56H291.57A42.26,42.26,0,0,0,293.11,177.88Z" transform="translate(0.03 0.03)"/><path class="cls-4" d="M332.94,208.37H291.57c0,21.18,20.91,39.14,41.37,41.79,1.77.23-1.82,0,0,0h0Z" transform="translate(0.03 0.03)"/><polygon class="cls-4" points="666.63 416.71 666.63 416.71 666.63 416.71 624.93 416.71 624.82 416.82 609.77 431.87 607.82 433.82 590.76 450.88 583.3 458.17 583.3 458.37 624.93 458.37 624.95 458.36 625.14 458.16 637.19 446.12 666.63 416.82 666.63 416.71 666.63 416.71"/><rect class="cls-4" x="441.46" y="24.88" width="33.56" height="33.56" transform="translate(104.78 336.26) rotate(-45)"/><path class="cls-4" d="M499.89,416.67h0c0-.12,0-.24,0-.36Z" transform="translate(0.03 0.03)"/><path class="cls-4" d="M375.43,458.35h-.53V500h41.84v-.39a42,42,0,0,0-41.31-41.27Z" transform="translate(0.03 0.03)"/><path class="cls-4" d="M374.9,416.68h-42a41.92,41.92,0,0,0,42,41.67V416.68Z" transform="translate(0.03 0.03)"/><path class="cls-4" d="M292.09,416.68H250.14a41.91,41.91,0,0,0,41.95,41.66V416.68Z" transform="translate(0.03 0.03)"/><polygon class="cls-4" points="354.08 104.21 332.98 124.67 332.98 124.67 332.98 124.81 332.98 125.03 332.98 125.03 354.08 125.03 374.87 125.03 374.93 125.03 392.47 107.49 416.77 83.26 392.47 83.26 392.46 83.26 375.15 83.26 375.14 83.26 374.93 83.26 374.92 83.26 354.08 104.21"/><path class="cls-4" d="M374.9,375h-42v41.67h0c.13,0-.12,0,0,0a43.5,43.5,0,0,0,25.41-8.41A41.62,41.62,0,0,0,374.9,375Z" transform="translate(0.03 0.03)"/><path class="cls-4" d="M332.94,125v-.36h0V83.23h-83A83.31,83.31,0,0,0,274,142c.14.15.28.3.43.44a83.76,83.76,0,0,0,17.08,13.07,81.82,81.82,0,0,0,41.39,11.09Z" transform="translate(0.03 0.03)"/><polygon class="cls-4" points="416.77 0.03 375.17 0.03 375.16 0.03 374.93 0.03 375.16 0.03 375.17 0.03 416.77 41.33 416.77 41.34 416.77 41.71 416.77 41.34 416.77 41.34 416.77 0.03"/><polygon class="cls-4" points="354.08 83.26 374.92 83.26 374.93 83.26 332.98 41.71 332.98 83.26 332.98 83.26 354.08 83.26"/><path class="cls-4" d="M416.74,129.35a41.62,41.62,0,0,0,41.49,37.21A39.06,39.06,0,0,0,499.9,125c0-.12,0-.24,0-.36a41.75,41.75,0,0,0-41.66-41.42h0c-4.21,0-8.26-1.16-12.09,0-15.78,4.78-27.66,20.56-29.4,37.44a41.88,41.88,0,0,0,0,4.34A41.88,41.88,0,0,0,416.74,129.35Z" transform="translate(0.03 0.03)"/><path class="cls-4" d="M541.61,208.37v41.79h41.66A41.77,41.77,0,0,0,541.61,208.37Z" transform="translate(0.03 0.03)"/><path class="cls-4" d="M541.61,166.56H499.9a41.83,41.83,0,0,0,41.71,41.81V166.56Z" transform="translate(0.03 0.03)"/><path class="cls-4" d="M562.16,463.79a41.31,41.31,0,0,0-20.55-5.45l0,41.28V500h41.7v-.39A41.68,41.68,0,0,0,562.16,463.79Z" transform="translate(0.03 0.03)"/><path class="cls-4" d="M500.11,416.68h-.21c0,1.05.05,2.08.13,3.11a41.69,41.69,0,0,0,41.58,38.55V416.68Z" transform="translate(0.03 0.03)"/><path class="cls-4" d="M375.19,375H375c0,1,.06,2.08.13,3.11a41.67,41.67,0,0,0,41.54,38.55V375Z" transform="translate(0.03 0.03)"/><path class="cls-4" d="M333.3,333.31h-.21c0,1.05.05,2.08.13,3.11A41.65,41.65,0,0,0,374.76,375V333.31Z" transform="translate(0.03 0.03)"/><polygon class="cls-4" points="499.93 416.71 499.93 416.71 499.93 416.71 499.93 416.71"/><path class="cls-4" d="M583.27,333.27h0V291.56H541.61A41.81,41.81,0,0,0,583.27,333.27Z" transform="translate(0.03 0.03)"/><path class="cls-4" d="M583.27,291.56v-41.4H541.61A41.44,41.44,0,0,0,583.27,291.56Z" transform="translate(0.03 0.03)"/><path class="cls-4" d="M208.32,333.27h0V291.56h-41.7c0,21.16,15.72,39,36.15,41.71a46.71,46.71,0,0,0,5.55,0Z" transform="translate(0.03 0.03)"/><path class="cls-4" d="M208.32,291.56v-41.4h-41.7A41.47,41.47,0,0,0,208.32,291.56Z" transform="translate(0.03 0.03)"/><path class="cls-4" d="M166.62,333.27h0V291.56H124.89A41.87,41.87,0,0,0,166.62,333.27Z" transform="translate(0.03 0.03)"/><path class="cls-4" d="M125.06,250.16h-.17c0,.07,0-.07,0,0,0,1.15.06-1.13.16,0,.79,9.15,4.54,20.93,10.28,27.43a41.61,41.61,0,0,0,31.28,14v-41.4H125.06Z" transform="translate(0.03 0.03)"/><path class="cls-4" d="M562.17,380.46A41.59,41.59,0,0,0,541.61,375s0,0,0,0,0,0,0,0a41.74,41.74,0,0,0-41.7,41.29c0,.12,0,.25,0,.37h83.37v-.17A41.68,41.68,0,0,0,562.17,380.46Z" transform="translate(0.03 0.03)"/><path class="cls-4" d="M312.38,380.46A41.48,41.48,0,0,0,291.84,375h-.14a41.64,41.64,0,0,0-41.58,41.29c0,.12,0,.25,0,.37h83.37v-.17A41.7,41.7,0,0,0,312.38,380.46Z" transform="translate(0.03 0.03)"/><polygon class="cls-4" points="583.3 41.71 583.3 0.03 541.64 41.51 541.64 41.71 541.64 83.26 541.64 83.26 583.3 41.71"/><polygon class="cls-4" points="583.3 41.71 599.31 25.66 624.93 0.03 583.3 0.03 583.3 41.71"/><path class="cls-4" d="M708.23,250.16H750a42.59,42.59,0,0,0-20.93-36.23A41.89,41.89,0,0,0,708.23,250.16Z" transform="translate(0.03 0.03)"/><path class="cls-4" d="M666.6,250.16v83.11h41.63c0-.13,0,.12,0,0,.2-22.84,18.87-41.7,41.76-41.71h0v-41.4H666.6Z" transform="translate(0.03 0.03)"/><rect class="cls-4" x="691.45" y="108.23" width="33.56" height="33.56" transform="translate(119.07 537.44) rotate(-45)"/><polygon class="cls-4" points="226.2 375.04 230.65 379.5 249.93 398.78 250.12 398.59 269.34 379.37 273.67 375.04 250.13 351.51 249.93 351.31 226.2 375.04"/><path class="cls-4" d="M83.24,208.37V166.56c-22.92,0-41.53,18.92-41.67,41.81H83.24Z" transform="translate(0.03 0.03)"/><polygon class="cls-4" points="83.27 83.26 41.6 83.26 41.6 125.04 83.27 125.04 83.27 83.26 83.27 83.26"/><path class="cls-4" d="M124.88,208.37c-.32-22.73-18.83-41.81-41.64-41.81v41.81H124.9c0-.12,0,.11,0,0S124.89,208.45,124.88,208.37Z" transform="translate(0.03 0.03)"/><path class="cls-4" d="M166.62,416.66h0V333.27A41.77,41.77,0,0,1,125,375,41.7,41.7,0,0,1,166.62,416.66Z" transform="translate(0.03 0.03)"/><polygon class="cls-4" points="166.65 416.7 166.65 416.71 166.65 416.7 166.65 416.7"/><path class="cls-4" d="M107.75,163a41.37,41.37,0,0,0,16.85,3.58h.6A41.66,41.66,0,0,0,166.62,125v-.37a41.81,41.81,0,0,0-41.54-41.41h-.18A41.77,41.77,0,0,0,86.84,142,41.84,41.84,0,0,0,107.75,163Zm17.15-61.71L148.63,125,124.9,148.74,101.17,125Z" transform="translate(0.03 0.03)"/><path class="cls-4" d="M183.55,383.1A41.93,41.93,0,0,1,208.32,375c-20.83,0-38.65-15.35-41.7-35.33a42.86,42.86,0,0,1,0-6.41h0v83.4h0A41.57,41.57,0,0,1,183.55,383.1Z" transform="translate(0.03 0.03)"/><path class="cls-4" d="M458.24,208.37a42.09,42.09,0,0,1-41.5,41.79h82.7A41.83,41.83,0,0,1,458.24,208.37Z" transform="translate(0.03 0.03)"/><path class="cls-4" d="M332.94,255.73c-.12-1.89,0-3.64,0-5.57v83.11h83.8c-2.53,0-5.33.22-7.8,0C368.37,329.59,335.72,296.56,332.94,255.73Z" transform="translate(0.03 0.03)"/><path class="cls-4" d="M416.56,255.73c-.12-1.89,0-3.64,0-5.57v83.11h83.8c-2.53,0-5.33.22-7.8,0C452,329.59,419.34,296.56,416.56,255.73Z" transform="translate(0.03 0.03)"/><polygon class="cls-4" points="499.92 250.19 499.92 250.19 499.92 250.19 499.92 250.19"/><path class="cls-4" d="M416.74,333.27c45.7.25,82.94,37.32,83.14,83,0,.12,0,.24,0,.37v-83.4Z" transform="translate(0.03 0.03)"/><path class="cls-4" d="M332.94,166.56h0v41.81h0v41.79h83.8C416.74,204.21,378.86,166.69,332.94,166.56Z" transform="translate(0.03 0.03)"/><polygon class="cls-4" points="624.93 41.71 624.93 83.26 624.93 83.26 666.63 41.71 666.63 0.03 666.63 0.03 666.63 0.03 625.29 41.35 624.93 41.71"/><polygon class="cls-4" points="166.65 500.04 166.65 500.03 124.94 458.37 124.93 458.37 83.27 416.9 83.27 416.71 83.27 416.71 83.27 416.7 83.27 416.7 83.27 416.71 83.27 416.71 83.27 458.37 83.27 499.67 83.27 500.03 83.27 500.04 124.93 500.04 166.65 500.04 166.65 500.04 166.65 500.04"/><polygon class="cls-4" points="0.03 416.71 41.6 416.71 83.27 416.71 83.27 416.7 83.27 416.34 83.27 416.31 0.03 333.3 0.03 333.3 0.03 333.3 0.03 416.7 0.03 416.7 0.03 416.71 0.03 416.71"/><path class="cls-4" d="M583.27,125a41.67,41.67,0,1,0,83.33,0v-.36h0A41.91,41.91,0,0,0,625,83.23h-.22A41.73,41.73,0,0,0,583.27,125Zm65.36,0L624.9,148.74,601.17,125l23.73-23.74Z" transform="translate(0.03 0.03)"/><path class="cls-4" d="M249.72,416.67A41.46,41.46,0,0,1,208.32,375v41.65h41.4Z" transform="translate(0.03 0.03)"/><polygon class="cls-4" points="208.35 458.38 166.65 458.38 166.65 500.04 166.65 500.04 166.65 500.04 166.65 500.04 166.65 500.04 208.35 500.04 208.35 500.02 208.35 458.38"/><path class="cls-1" d="M583.27,499.62v0Z" transform="translate(0.03 0.03)"/><path class="cls-1" d="M166.62,500h0v0Z" transform="translate(0.03 0.03)"/><path class="cls-5" d="M666.6,120.88c-.12,1.24,0,2.5,0,3.76h0Z" transform="translate(0.03 0.03)"/><path class="cls-5" d="M666.6,125v-.36h0Z" transform="translate(0.03 0.03)"/><path class="cls-5" d="M666.6,124.64c-.07,0,.07,0,0,0V125c0,1.39-.13,2.77,0,4.12Z" transform="translate(0.03 0.03)"/><path class="cls-5" d="M374.9,375v-.24l-.23.24Z" transform="translate(0.03 0.03)"/><path class="cls-5" d="M416.74,357.32c-.07,0,.06,0,0,0v17.31h0Z" transform="translate(0.03 0.03)"/><path class="cls-5" d="M142.38,250.16a68.25,68.25,0,0,0-.52-8.27c-9.39-6.93-15.76-21.23-16.8-33.52v41.79h17.31C142.37,250,142.38,250.28,142.38,250.16Z" transform="translate(0.03 0.03)"/><path class="cls-5" d="M83.24,291.56v17.05a59.22,59.22,0,0,0,41.52-17.05,40.9,40.9,0,0,1-5.31,0Z" transform="translate(0.03 0.03)"/><path class="cls-5" d="M83.24,291.56H42a58.58,58.58,0,0,0,41.22,17.05V291.56H77.72a42.36,42.36,0,0,0,5.52,0Z" transform="translate(0.03 0.03)"/><path class="cls-5" d="M41.57,208.37c-.09.08-.16-.09-.25,0Z" transform="translate(0.03 0.03)"/><path class="cls-5" d="M125.06,208.37h.42c-.13-.13-.25.13-.38,0s-.14.07-.22,0,0-.09,0,0Z" transform="translate(0.03 0.03)"/><path class="cls-5" d="M125.06,291.56h-.16a59.2,59.2,0,0,0,10.44-14c-5.74-6.5-9.49-18.28-10.28-27.43Z" transform="translate(0.03 0.03)"/><path class="cls-5" d="M24.39,250.16c0,.12,0-.13,0,0a59.15,59.15,0,0,0,17.17,41.4v-41.4c0,1.12,0-1.1.14,0h0V208.37h-.18A41.52,41.52,0,0,1,25,241.6a67.13,67.13,0,0,0-.56,8.56Z" transform="translate(0.03 0.03)"/><path class="cls-5" d="M475.77,416.3a59,59,0,0,0-59-59v17.32h41.71V416.3h17.32Z" transform="translate(0.03 0.03)"/><path class="cls-5" d="M163,141.84c1.17.07,2.41.12,3.6.12h0V125A41.66,41.66,0,0,1,163,141.84Z" transform="translate(0.03 0.03)"/><path class="cls-5" d="M166.62,124.64h0v0Z" transform="translate(0.03 0.03)"/><path class="cls-5" d="M125.08,83.23h0Z" transform="translate(0.03 0.03)"/><path class="cls-5" d="M166.62,128.68v-4h0V125C166.62,126.24,166.51,127.47,166.62,128.68Z" transform="translate(0.03 0.03)"/><path class="cls-5" d="M107.91,87a41.42,41.42,0,0,1,17-3.74H107.77C107.77,84.44,107.83,85.77,107.91,87Z" transform="translate(0.03 0.03)"/><path class="cls-5" d="M86.84,142h-3.6v24.59h24.51V163A41.84,41.84,0,0,1,86.84,142Z" transform="translate(0.03 0.03)"/><path class="cls-5" d="M208.32,375a41.93,41.93,0,0,0-24.77,8.09A84,84,0,0,0,208.32,405V375h0V333.27h0a46.71,46.71,0,0,1-5.55,0H166.62c0,2.26-.18,4.2,0,6.41C169.67,359.66,187.49,375,208.32,375Z" transform="translate(0.03 0.03)"/><path class="cls-5" d="M249.9,291.56h.2c-19.41,0-37.16,13-41.78,31-.86,3.33,0,7.12,0,10.72H249.9V291.56Z" transform="translate(0.03 0.03)"/><path class="cls-5" d="M250.13,291.56h5.53A42.52,42.52,0,0,0,250.13,291.56Z" transform="translate(0.03 0.03)"/><path class="cls-5" d="M250.44,333.27h41.13v41.18l.18.19V333.27h0a44,44,0,0,0-1.31-10.72,41.34,41.34,0,0,0-4.28-10.43A41.62,41.62,0,0,1,250.44,333.27Z" transform="translate(0.03 0.03)"/><path class="cls-5" d="M249.9,333.27Z" transform="translate(0.03 0.03)"/><path class="cls-5" d="M250.47,333.27l41.08,41.17A41.72,41.72,0,0,0,250.47,333.27Z" transform="translate(0.03 0.03)"/><path class="cls-5" d="M291.57,416.67h-41.1L291.75,458V416.29h0c0-1.24-.08-2.46-.18-3.67Z" transform="translate(0.03 0.03)"/><polygon class="cls-5" points="666.63 83.26 666.63 83.26 666.63 83.26 666.63 83.26 666.63 83.26"/><path class="cls-5" d="M624.9,41.67l.36-.35h-.15c-19.42,0-37.22,13.29-41.84,31.26-.86,3.33,0,7.06,0,10.66H624.9Z" transform="translate(0.03 0.03)"/><path class="cls-5" d="M250.1,499.62h41.65A41.66,41.66,0,0,0,250.1,458h-.21a41.85,41.85,0,0,0-5.4.37c-16.88,2.27-32,14.66-36.17,30.88-.86,3.32,0,6.82,0,10.41H250.1Z" transform="translate(0.03 0.03)"/><path class="cls-5" d="M416.74,250.16c-.15-1.4,0,1.44,0,0h0v-83.6h-83.8c45.92.13,83.8,37.65,83.8,83.6h-83.8v5.57c2.78,40.83,35.43,73.86,76,77.54h7.8c0-1.31-.13-2.91,0-4.19Zm0,41.4Zm0-41.4Z" transform="translate(0.03 0.03)"/><path class="cls-5" d="M250.13,166.56H260.7c-1.07-.13-2.15.1-3.24,0Z" transform="translate(0.03 0.03)"/><path class="cls-5" d="M24.32,142.26,41.57,125V83.23a42.9,42.9,0,0,1-6.21,0H0v7A83.24,83.24,0,0,0,24.32,142.26Z" transform="translate(0.03 0.03)"/><path class="cls-5" d="M83.24,83.23H47.78a42.9,42.9,0,0,1-6.21,0Z" transform="translate(0.03 0.03)"/><path class="cls-5" d="M83.24,166.56V125L49,159.22a83.45,83.45,0,0,0,26.87,7.34Z" transform="translate(0.03 0.03)"/><path class="cls-5" d="M83.24,374.61V333.27H77.63a47.72,47.72,0,0,0,5.61,0H36a42.76,42.76,0,0,0,5.31,0H0l83.24,83h0Z" transform="translate(0.03 0.03)"/><path class="cls-5" d="M83.24,458.34V416.67H0v7a83.75,83.75,0,0,0,76,76l.15,0h7.14Z" transform="translate(0.03 0.03)"/><polygon class="cls-5" points="83.27 416.71 83.27 416.9 83.27 416.71 83.27 416.71"/><polygon class="cls-5" points="83.27 416.7 83.27 416.34 83.27 416.34 83.27 416.7 83.27 416.7 83.27 416.7 83.27 416.7 83.27 416.71 83.27 416.71 83.27 416.7"/><line class="cls-6" x1="416.77" y1="250.19" x2="416.77" y2="250.19"/><line class="cls-6" x1="416.77" y1="291.6" x2="416.77" y2="291.6"/><path class="cls-5" d="M0,250.16H0a42.24,42.24,0,0,0,25-8.56,41.52,41.52,0,0,0,16.58-33.23H0v41.79Z" transform="translate(0.03 0.03)"/><line class="cls-7" x1="0.03" y1="416.7" x2="0.03" y2="416.71"/><rect class="cls-5" x="24.78" y="24.89" width="33.56" height="33.56" transform="translate(-17.26 41.63) rotate(-45)"/><path class="cls-5" d="M166.62,208.37H124.9c0,1.2.06-1.18.16,0,1,12.29,7.41,26.59,16.8,33.52a41.75,41.75,0,0,0,24.76,8.27h0Z" transform="translate(0.03 0.03)"/><line class="cls-8" x1="83.27" y1="416.7" x2="83.27" y2="416.7"/><polygon class="cls-5" points="83.27 83.26 107.8 83.26 124.93 83.26 124.93 83.26 124.93 83.26 124.93 41.71 83.27 41.71 83.27 83.26 83.27 83.26"/><polyline class="cls-7" points="249.93 333.3 249.93 333.3 249.93 333.3"/><polygon class="cls-5" points="208.35 83.26 208.35 83.26 249.93 83.26 249.93 83.26 249.93 83.26 249.93 83.26 249.93 41.71 208.35 41.71 208.35 83.26"/><path class="cls-5" d="M541.61,124.92v-.11c.1-22.72,19-41.25,41.66-41.58H500.52A41.79,41.79,0,0,1,541.61,124.92Z" transform="translate(0.03 0.03)"/><path class="cls-5" d="M541.61,125.17v-.11a41.62,41.62,0,0,1-41.71,41.5h83.37A41.57,41.57,0,0,1,541.61,125.17Z" transform="translate(0.03 0.03)"/><path class="cls-5" d="M458.24,208.37a41.84,41.84,0,0,1,41.66-41.81H416.74A41.88,41.88,0,0,1,458.24,208.37Z" transform="translate(0.03 0.03)"/><polygon class="cls-5" points="624.93 475.8 624.93 458.37 583.3 458.37 583.3 499.66 583.3 500.04 583.3 500.04 607.82 500.04 624.93 500.04 624.93 499.66 624.93 488.85 624.93 475.8"/><path class="cls-5" d="M416.74,29.58c-.77,2.53.27,5.17,0,7.88-.13,1.26,0,2.55,0,3.84h0v.36c0,1.42-.14,2.82,0,4.21a41.63,41.63,0,0,0,41.49,37.35h0a42.76,42.76,0,0,0,5.31,0A41.91,41.91,0,0,0,499.9,42v-.69A41.66,41.66,0,0,0,458.44,0h-.2C439.43,0,421.92,12.46,416.74,29.58Zm41.5-11.65L482,41.67,458.24,65.4,434.51,41.67Z" transform="translate(0.03 0.03)"/><polygon class="cls-5" points="374.93 155.29 374.93 141.99 374.93 125.03 374.86 125.03 354.08 125.03 332.98 125.03 332.98 125.03 332.98 166.6 332.98 166.6 332.98 166.6 332.98 166.6 332.98 166.6 332.98 166.6 374.93 166.6 374.93 166.6 374.93 166.6 374.93 155.29"/><line class="cls-7" x1="332.98" y1="166.6" x2="332.98" y2="166.6"/><rect class="cls-5" x="441.45" y="441.56" width="33.56" height="33.56" transform="translate(-189.85 458.3) rotate(-45)"/><polygon class="cls-5" points="374.93 83.26 374.93 71.71 374.93 58.66 374.93 41.71 357.84 24.61 332.98 0.03 332.98 0.03 332.98 0.03 332.98 5.41 332.98 41.71 374.93 83.26"/><polygon class="cls-5" points="541.64 83.26 583.3 83.26 583.3 83.26 583.3 83.26 583.3 83.26 583.3 55.59 583.3 41.71 541.64 83.26"/><polygon class="cls-5" points="499.94 0.03 499.93 0.03 499.93 41.36 499.93 41.71 541.64 0.03 499.94 0.03"/><path class="cls-5" d="M249.9,83.23h83V41.67H291.57V41.6c0-.1,0-.19,0-.29,0-1.31.07-2.61.2-3.9a41.64,41.64,0,0,1,16.7-29.25l.62-.44A40.58,40.58,0,0,1,332.94,0h-83V83.23Z" transform="translate(0.03 0.03)"/><path class="cls-5" d="M624.9,333.27H583.27a41.69,41.69,0,0,0,16.59,33.37,41,41,0,0,0,7.93,4.69A41.41,41.41,0,0,0,624.6,375h.51a43.09,43.09,0,0,0,5.24-.36,41.64,41.64,0,0,0,28.2-16.74l.41-.58a41.9,41.9,0,0,0,7.64-24.05H624.9Z" transform="translate(0.03 0.03)"/><path class="cls-5" d="M666.6,416.62h0v-.31A41.72,41.72,0,0,0,625.11,375h-.44a41.41,41.41,0,0,0-16.88,3.67A42.1,42.1,0,0,0,583.27,411c-.07.52.05,1.05,0,1.58-.12,1.28,0,2.58,0,3.89v.18H666.6Z" transform="translate(0.03 0.03)"/><path class="cls-5" d="M750,125V83.23H708.23A41.85,41.85,0,0,1,750,125Z" transform="translate(0.03 0.03)"/><path class="cls-5" d="M666.6,166.56h41.63a39,39,0,0,1-41.63-37.43c-.13-1.35,0-2.73,0-4.12v41.55Z" transform="translate(0.03 0.03)"/><path class="cls-5" d="M666.6,124.64h0v0h0c0-1.26-.12-2.52,0-3.76a41.93,41.93,0,0,1,41.63-37.65H666.6v41.41Z" transform="translate(0.03 0.03)"/><path class="cls-5" d="M713.65,166.56a42.61,42.61,0,0,1-5.42,0H750V125A42,42,0,0,1,713.65,166.56Z" transform="translate(0.03 0.03)"/><path class="cls-5" d="M741.77,475.28a42,42,0,0,0-8.6-8.65,41.12,41.12,0,0,0-7.42-4.43,41.55,41.55,0,0,0-17.52-3.86V500H750v-.38A41.57,41.57,0,0,0,741.77,475.28Z" transform="translate(0.03 0.03)"/><path class="cls-5" d="M708.23,458V416.68H666.6v.1A41.61,41.61,0,0,0,702.67,458a42.5,42.5,0,0,0,5.45.38h.11V458Z" transform="translate(0.03 0.03)"/><path class="cls-5" d="M625.09,250.16H583.27v41.4h0v41.71H624.9A41.54,41.54,0,0,1,631,311.65a41.77,41.77,0,0,1,35.61-20.09v-41.4H625.09Z" transform="translate(0.03 0.03)"/><path class="cls-5" d="M666.6,166.56v83.6h41.63A41.62,41.62,0,0,1,750,208.37V166.56H666.6Z" transform="translate(0.03 0.03)"/><path class="cls-5" d="M666.6,0V83.23h41.63A41.7,41.7,0,0,1,750,41.31V0H666.6Z" transform="translate(0.03 0.03)"/><path class="cls-5" d="M666.6,333.27a41.78,41.78,0,0,1,41.63,41.57v.1s0-.07,0-.1A41.8,41.8,0,0,1,750,333.27H666.6Z" transform="translate(0.03 0.03)"/><path class="cls-5" d="M708.44,379.12c-.13-1.33-.2-2.68-.21-4a41.8,41.8,0,0,1-41.63,41.59c-.07,0,.07,0,0,0H750a43.51,43.51,0,0,1-5.63-.38A41.67,41.67,0,0,1,708.44,379.12Z" transform="translate(0.03 0.03)"/><path class="cls-5" d="M250.46,333.27h0a41.72,41.72,0,0,1,41.08,41.17c0,.19,0,.38,0,.57V333.27Z" transform="translate(0.03 0.03)"/><path class="cls-5" d="M250.45,416.66h-.14l-.41,0h41.67V375a41.67,41.67,0,0,1-41.12,41.65Z" transform="translate(0.03 0.03)"/><path class="cls-5" d="M208.32,375h0c0-1.37-.13-2.73,0-4.06a41.84,41.84,0,0,1,41.4-37.68h-41.4Z" transform="translate(0.03 0.03)"/></svg>