<svg width="885" height="728" viewBox="0 0 885 728" fill="none" xmlns="http://www.w3.org/2000/svg">
<path fill-rule="evenodd" clip-rule="evenodd" d="M364.376 728.009C565.41 728.009 728.38 565.039 728.38 364.005C728.38 162.97 565.41 0 364.376 0C163.341 0 0.371094 162.97 0.371094 364.005C0.371094 565.039 163.341 728.009 364.376 728.009ZM364.377 563.62C474.621 563.62 563.992 474.249 563.992 364.005C563.992 253.76 474.621 164.389 364.377 164.389C254.132 164.389 164.761 253.76 164.761 364.005C164.761 474.249 254.132 563.62 364.377 563.62Z" fill="#0F4FC4"/>
<path fill-rule="evenodd" clip-rule="evenodd" d="M520.277 728.009C721.311 728.009 884.281 565.039 884.281 364.005C884.281 162.97 721.311 0 520.277 0C319.243 0 156.272 162.97 156.272 364.005C156.272 565.039 319.243 728.009 520.277 728.009ZM520.278 563.62C630.523 563.62 719.894 474.249 719.894 364.005C719.894 253.76 630.523 164.389 520.278 164.389C410.034 164.389 320.663 253.76 320.663 364.005C320.663 474.249 410.034 563.62 520.278 563.62Z" fill="#07D679"/>
</svg>
